Jump_normalized_precision_landing08_filtered_grf
version=1
nRows=30
nColumns=37
inDegrees=yes
endheader
time		1_ground_force_vx		1_ground_force_vy		1_ground_force_vz		1_ground_force_px		1_ground_force_py		1_ground_force_pz		1_ground_torque_x		1_ground_torque_y		1_ground_torque_z		2_ground_force_vx		2_ground_force_vy		2_ground_force_vz		2_ground_force_px		2_ground_force_py		2_ground_force_pz		2_ground_torque_x		2_ground_torque_y		2_ground_torque_z		3_ground_force_vx		3_ground_force_vy		3_ground_force_vz		3_ground_force_px		3_ground_force_py		3_ground_force_pz		3_ground_torque_x		3_ground_torque_y		3_ground_torque_z		4_ground_force_vx		4_ground_force_vy		4_ground_force_vz		4_ground_force_px		4_ground_force_py		4_ground_force_pz		4_ground_torque_x		4_ground_torque_y		4_ground_torque_z		
1.208667		0.000000		-0.000000		-0.000000		0.094183		0.000000		0.253884		-0.000000		-0.000000		0.000000		-0.000000		-0.000000		-0.000000		-0.197135		0.000000		0.253200		-0.000000		0.000000		-0.000000		-59.374196		605.644442		0.559995		0.381189		1.273549		1.887707		3.185817		-32.496833		-0.030042		89.307529		538.370873		-25.482045		-0.352621		1.267086		1.875809		3.381440		20.384269		-0.964827		
1.211444		0.000000		-0.000000		-0.000000		0.094183		0.000000		0.253884		-0.000000		-0.000000		0.000000		-0.000000		-0.000000		-0.000000		-0.197135		0.000000		0.253200		-0.000000		0.000000		-0.000000		-58.197887		602.427902		-3.521300		0.381221		1.273604		1.887817		3.134557		-32.446970		0.189661		88.653702		536.159123		-29.102445		-0.352536		1.267135		1.875886		3.367544		20.366201		-1.105468		
1.214222		-0.000000		-0.000000		-0.000000		0.094183		0.000000		0.253884		-0.000000		-0.000000		0.000000		-0.000000		-0.000000		-0.000000		-0.197135		0.000000		0.253200		-0.000000		0.000000		-0.000000		-57.101859		598.900932		-7.899697		0.381237		1.273671		1.887946		3.087140		-32.378840		0.427095		88.047902		533.735869		-33.067978		-0.352438		1.267184		1.875959		3.355705		20.341888		-1.260300		
1.217000		-0.000000		0.000000		0.000000		0.094183		0.000000		0.253884		0.000000		0.000000		-0.000000		-0.000000		-0.000000		-0.000000		-0.197135		0.000000		0.253200		-0.000000		0.000000		-0.000000		-56.038851		595.045438		-12.561810		0.381244		1.273735		1.888085		3.041108		-32.291835		0.681702		87.483523		531.118791		-37.280128		-0.352339		1.267228		1.876028		3.345748		20.312277		-1.425753		
1.219778		-0.000000		0.000000		0.000000		0.094183		0.000000		0.253884		0.000000		0.000000		-0.000000		0.000000		-0.000000		-0.000000		-0.197135		0.000000		0.253200		-0.000000		0.000000		-0.000000		-54.967729		590.866293		-17.459191		0.381243		1.273789		1.888228		2.994317		-32.186918		0.951083		86.946795		528.311710		-41.620727		-0.352246		1.267266		1.876096		3.337096		20.277081		-1.597447		
1.222556		-0.000000		0.000000		0.000000		0.094183		0.000000		0.253884		0.000000		0.000000		-0.000000		0.000000		0.000000		-0.000000		-0.197135		0.000000		0.253200		0.000000		0.000000		0.000000		-53.863446		586.406273		-22.509613		0.381241		1.273830		1.888371		2.945449		-32.066835		1.230911		86.417912		525.317382		-45.967199		-0.352167		1.267299		1.876161		3.328813		20.235191		-1.770656		
1.225333		-0.000000		0.000000		0.000000		0.094183		0.000000		0.253884		0.000000		0.000000		-0.000000		0.000000		0.000000		0.000000		-0.197135		0.000000		0.253200		0.000000		-0.000000		0.000000		-52.716552		581.716902		-27.626189		0.381239		1.273858		1.888508		2.893934		-31.934015		1.516580		85.877697		522.131496		-50.217503		-0.352105		1.267327		1.876229		3.319920		20.184920		-1.941348		
1.228111		-0.000000		0.000000		0.000000		0.094183		0.000000		0.253884		0.000000		0.000000		-0.000000		0.000000		0.000000		0.000000		-0.197135		0.000000		0.253200		0.000000		-0.000000		0.000000		-51.531035		576.853052		-32.734499		0.381240		1.273882		1.888639		2.839829		-31.789859		1.803976		85.306882		518.752596		-54.345882		-0.352056		1.267354		1.876298		3.309466		20.124913		-2.108342		
1.230889		0.000000		-0.000000		0.000000		0.094183		0.000000		0.253884		0.000000		0.000000		0.000000		0.000000		0.000000		0.000000		-0.197135		0.000000		0.253200		0.000000		-0.000000		0.000000		-50.318470		571.852489		-37.793099		0.381245		1.273907		1.888762		2.783495		-31.633486		2.090629		84.690596		515.185302		-58.355873		-0.352016		1.267383		1.876369		3.296742		20.054565		-2.271616		
1.233667		0.000000		-0.000000		-0.000000		0.094183		0.000000		0.253884		-0.000000		-0.000000		0.000000		0.000000		0.000000		0.000000		-0.197135		0.000000		0.253200		0.000000		-0.000000		0.000000		-49.094849		566.732553		-42.799384		0.381253		1.273938		1.888881		2.725486		-31.462007		2.376004		84.019186		511.447527		-62.275590		-0.351979		1.267413		1.876444		3.281319		19.974282		-2.432141		
1.236444		0.000000		-0.000000		-0.000000		0.094183		0.000000		0.253884		-0.000000		-0.000000		0.000000		-0.000000		0.000000		0.000000		-0.197135		0.000000		0.253200		0.000000		-0.000000		0.000000		-47.876404		561.487748		-47.783249		0.381263		1.273977		1.888996		2.666429		-31.271514		2.661245		83.291570		507.570231		-66.140952		-0.351942		1.267444		1.876524		3.263138		19.885228		-2.591226		
1.239222		0.000000		-0.000000		-0.000000		0.094183		0.000000		0.253884		-0.000000		-0.000000		0.000000		-0.000000		-0.000000		0.000000		-0.197135		0.000000		0.253200		-0.000000		-0.000000		-0.000000		-46.676354		556.087182		-52.790943		0.381276		1.274024		1.889107		2.606912		-31.057927		2.948424		82.515899		503.588728		-69.981015		-0.351905		1.267474		1.876610		3.242501		19.788756		-2.749941		
1.242000		0.000000		-0.000000		-0.000000		0.094183		0.000000		0.253884		-0.000000		-0.000000		0.000000		-0.000000		-0.000000		-0.000000		-0.197135		0.000000		0.253200		-0.000000		0.000000		-0.000000		-45.501753		550.483564		-57.863990		0.381289		1.274078		1.889216		2.547386		-30.818468		3.239478		81.707853		499.534132		-73.808797		-0.351872		1.267502		1.876702		3.220018		19.686100		-2.908725		
1.244778		0.000000		-0.000000		-0.000000		0.094183		0.000000		0.253884		-0.000000		-0.000000		0.000000		-0.000000		-0.000000		-0.000000		-0.197135		0.000000		0.253200		-0.000000		0.000000		-0.000000		-44.351197		544.615490		-63.028362		0.381303		1.274136		1.889324		2.487919		-30.550683		3.535636		80.882193		495.417714		-77.624951		-0.351847		1.267525		1.876801		3.196244		19.577559		-3.067531		
1.247556		-0.000000		0.000000		-0.000000		0.094183		0.000000		0.253884		0.000000		0.000000		-0.000000		-0.000000		-0.000000		-0.000000		-0.197135		0.000000		0.253200		-0.000000		0.000000		-0.000000		-43.208418		538.434956		-68.284783		0.381315		1.274196		1.889429		2.427786		-30.253476		3.836773		80.048527		491.227544		-81.421633		-0.351832		1.267543		1.876904		3.171526		19.462457		-3.225930		
1.250333		-0.000000		0.000000		0.000000		0.094183		0.000000		0.253884		0.000000		0.000000		-0.000000		-0.000000		-0.000000		-0.000000		-0.197135		0.000000		0.253200		-0.000000		0.000000		-0.000000		-42.039096		531.902653		-73.619061		0.381326		1.274257		1.889534		2.365129		-29.924967		4.141828		79.207122		486.922127		-85.194024		-0.351825		1.267558		1.877009		3.145809		19.338720		-3.383590		
1.253111		-0.000000		0.000000		0.000000		0.094183		0.000000		0.253884		0.000000		0.000000		-0.000000		0.000000		0.000000		-0.000000		-0.197135		0.000000		0.253200		-0.000000		0.000000		0.000000		-40.788805		525.005834		-78.998397		0.381335		1.274315		1.889635		2.296866		-29.563707		4.448496		78.345731		482.434030		-88.958758		-0.351822		1.267572		1.877113		3.118584		19.203487		-3.541042		
1.255889		-0.000000		0.000000		0.000000		0.094183		0.000000		0.253884		0.000000		0.000000		-0.000000		0.000000		0.000000		0.000000		-0.197135		0.000000		0.253200		0.000000		-0.000000		0.000000		-39.393733		517.745018		-84.381811		0.381340		1.274368		1.889732		2.219337		-29.168356		4.753844		77.443165		477.673617		-92.730247		-0.351819		1.267586		1.877213		3.089075		19.053577		-3.698852		
1.258667		-0.000000		0.000000		0.000000		0.094183		0.000000		0.253884		0.000000		0.000000		-0.000000		0.000000		0.000000		0.000000		-0.197135		0.000000		0.253200		0.000000		-0.000000		0.000000		-37.798643		510.133526		-89.720419		0.381340		1.274416		1.889822		2.129431		-28.738969		5.054504		76.469340		472.539031		-96.517809		-0.351813		1.267599		1.877309		3.056254		18.885995		-3.857535		
1.261444		-0.000000		0.000000		0.000000		0.094183		0.000000		0.253884		0.000000		0.000000		-0.000000		0.000000		0.000000		0.000000		-0.197135		0.000000		0.253200		0.000000		-0.000000		0.000000		-35.975967		502.193664		-94.957300		0.381334		1.274454		1.889904		2.025722		-28.277333		5.346819		75.388327		466.932153		-100.320780		-0.351801		1.267610		1.877398		3.018877		18.697997		-4.017282		
1.264222		0.000000		-0.000000		-0.000000		0.094183		0.000000		0.253884		-0.000000		-0.000000		0.000000		0.000000		0.000000		0.000000		-0.197135		0.000000		0.253200		0.000000		-0.000000		0.000000		-33.934696		493.952089		-100.023546		0.381324		1.274483		1.889975		1.908919		-27.786137		5.626591		74.162979		460.765426		-104.123819		-0.351788		1.267618		1.877479		2.975528		18.486587		-4.177604		
1.267000		0.000000		-0.000000		-0.000000		0.094183		0.000000		0.253884		-0.000000		-0.000000		0.000000		-0.000000		0.000000		0.000000		-0.197135		0.000000		0.253200		0.000000		-0.000000		0.000000		-31.728537		485.448679		-104.845470		0.381312		1.274503		1.890032		1.782274		-27.268915		5.889443		72.767001		453.986579		-107.897706		-0.351775		1.267623		1.877552		2.925062		18.249189		-4.337233		
1.269778		0.000000		-0.000000		-0.000000		0.094183		0.000000		0.253884		-0.000000		-0.000000		0.000000		-0.000000		-0.000000		0.000000		-0.197135		0.000000		0.253200		0.000000		-0.000000		-0.000000		-29.438960		476.723184		-109.339005		0.381299		1.274514		1.890075		1.650537		-26.728127		6.130232		71.186321		446.554833		-111.592827		-0.351766		1.267625		1.877614		2.866681		17.982817		-4.493859		
1.272556		0.000000		-0.000000		-0.000000		0.094183		0.000000		0.253884		-0.000000		-0.000000		0.000000		-0.000000		-0.000000		-0.000000		-0.197135		0.000000		0.253200		-0.000000		0.000000		-0.000000		-27.161553		467.820347		-113.434032		0.381289		1.274519		1.890100		1.519194		-26.166024		6.344564		69.430184		438.468274		-115.155347		-0.351764		1.267626		1.877666		2.800506		17.685865		-4.644857		
1.275333		0.000000		-0.000000		-0.000000		0.094183		0.000000		0.253884		-0.000000		-0.000000		0.000000		-0.000000		-0.000000		-0.000000		-0.197135		0.000000		0.253200		-0.000000		0.000000		-0.000000		-24.984342		458.764795		-117.070128		0.381281		1.274522		1.890111		1.393261		-25.583139		6.528439		67.522091		429.722689		-118.522517		-0.351765		1.267629		1.877705		2.727244		17.356671		-4.787173		
1.278111		-0.000000		-0.000000		-0.000000		0.094183		0.000000		0.253884		-0.000000		-0.000000		0.000000		-0.000000		-0.000000		-0.000000		-0.197135		0.000000		0.253200		-0.000000		0.000000		-0.000000		-22.973524		449.554618		-120.228039		0.381276		1.274526		1.890111		1.276506		-24.979129		6.680364		65.500024		420.331299		-121.645026		-0.351765		1.267635		1.877736		2.648239		16.994462		-4.918245		
1.280889		-0.000000		0.000000		0.000000		0.094183		0.000000		0.253884		0.000000		0.000000		-0.000000		-0.000000		-0.000000		-0.000000		-0.197135		0.000000		0.253200		-0.000000		0.000000		-0.000000		-21.167993		440.153651		-122.906211		0.381272		1.274537		1.890106		1.171160		-24.352312		6.800006		63.403112		410.299498		-124.501893		-0.351762		1.267649		1.877758		2.564858		16.597924		-5.036499		
1.283667		-0.000000		0.000000		0.000000		0.094183		0.000000		0.253884		0.000000		0.000000		-0.000000		0.000000		-0.000000		-0.000000		-0.197135		0.000000		0.253200		-0.000000		0.000000		-0.000000		-19.576210		430.496886		-125.119961		0.381268		1.274556		1.890101		1.077718		-23.699856		6.888135		61.268970		399.639996		-127.092709		-0.351753		1.267671		1.877777		2.478376		16.165739		-5.140995		
1.286444		-0.000000		0.000000		0.000000		0.094183		0.000000		0.253884		0.000000		0.000000		-0.000000		0.000000		0.000000		-0.000000		-0.197135		0.000000		0.253200		0.000000		0.000000		0.000000		-18.174834		420.502365		-126.886770		0.381261		1.274582		1.890096		0.994875		-23.017912		6.945660		59.130074		388.381231		-129.422663		-0.351738		1.267699		1.877793		2.389855		15.697173		-5.230864		
1.289222		-0.000000		0.000000		0.000000		0.094183		0.000000		0.253884		0.000000		0.000000		-0.000000		0.000000		0.000000		0.000000		-0.197135		0.000000		0.253200		0.000000		-0.000000		0.000000		-16.912892		410.078063		-128.204243		0.381252		1.274613		1.890094		0.919789		-22.301592		6.972217		57.015041		376.566419		-131.479601		-0.351722		1.267734		1.877808		2.300255		15.192457		-5.304499		
